<?xml version="1.0" encoding="UTF-8"?>
<svg xmlns="http://www.w3.org/2000/svg" viewBox="0 0 1024 1024" role="img" aria-label="DingTalk">
<path fill="#0089FF" d="M757.04834 0c92.679907 0 126.288062 9.650903 160.169019 27.770564 33.882934 18.11966 60.475305 44.712031 78.594965 78.594965 18.11966 33.882934 27.770564 67.489112 27.770564 160.169019v490.511815c0 92.681884-9.650903 126.290039-27.770564 160.170996-18.11966 33.882934-44.712031 60.475305-78.594965 78.594965-33.882934 18.11966-67.489112 27.770564-160.169019 27.770564H266.536525c-92.681884 0-126.290039-9.650903-160.170996-27.770564-33.882934-18.11966-60.475305-44.712031-78.594965-78.594965C9.650903 883.334425 0 849.728247 0 757.04834V266.536525c0-92.681884 9.650903-126.290039 27.770564-160.170996 18.11966-33.882934 44.712031-60.475305 78.594965-78.594965C140.248463 9.650903 173.854641 0 266.534548 0h490.511815zM210.493282 134.177606c-2.981066 2.245683-3.876571 4.831382-4.25217 6.735074-9.026224 49.830054 8.192 136.583413 52.465174 169.074656 27.205189 19.8059 206.409143 82.184896 279.409668 107.000093 2.063815 0.721544 1.146564 3.868664-0.917251 3.305266-46.501066-11.445869-139.260046-34.717158-205.440495-51.267212l-6.420756-1.60519c-39.036541-9.757653-67.415969-16.818903-68.880803-17.040308-3.959598-0.602934-7.08695 0.39932-9.943475 3.125374-1.917529 1.883923-3.564232 5.511413-2.939552 9.702301 8.901683 56.264649 60.263784 129.126795 106.165868 139.169112 18.837251 4.109838 79.318486 5.019181 129.775197 5.056742h6.428664c19.096216-0.011861 36.369792-0.138378 48.857452-0.247105 2.08556 0.039537 2.356386 3.186656 0.270826 3.508881-52.425637 6.57495-179.662579 23.692355-182.78993 24.172725a10.858749 10.858749 0 0 0-7.899429 5.792124c-1.231568 2.225915-2.190332 5.875151-0.168031 10.28349 2.133004 4.738471 5.456062 9.933591 9.121112 14.944865l0.885622 1.197962c8.172232 10.95166 17.672896 20.756757 19.46193 22.581374l0.164078 0.166054 0.059305 0.059305 0.075119 0.079074c48.651861 51.733745 103.099799 46.740263 116.670765 44.557837 12.671506-2.044046 44.545977-11.766116 62.159567-19.303783 1.397622-0.502116 2.751753 0.763058 2.188356 2.125096L524.256371 723.206919c-0.35583 1.022023 0.500139 2.105328 1.522162 2.283243h86.235428c1.229591 0.019768 1.876015 1.083305 1.522163 2.304989l-53.425916 163.563243c-0.563398 1.745544 1.688216 3.166888 2.937576 1.605189l193.547861-239.93427c0.875737-1.022023 0.041514-2.783382-1.334363-2.805128h-89.945946c-1.397622-0.019768-2.231846-1.362039-1.522162-2.56593a8720.822857 8720.822857 0 0 0 62.645868-101.403676l3.056186-5.036973 1.526116-2.520463 3.048278-5.040927c20.28627-33.580479 39.706687-66.56 50.312401-86.723706 8.379799-14.312278 12.216834-35.156015 6.752865-51.11302-5.189189-15.976772-17.113452-28.723398-40.147521-38.364417-21.156077-8.919475-506.702085-213.774826-529.026471-224.457637-3.773776-1.804849-8.277004-1.205869-11.465637 1.18017z"  ></path>
</svg>