<svg xmlns="http://www.w3.org/2000/svg" viewBox="0 0 48 48" fill="none">
  <path fill="#2DC100" d="M17.6 8.2C9.6 8.2 3 13.7 3 20.5c0 3.9 2.1 7.4 5.4 9.8l-1.4 4.2 4.9-2.4c1.7.5 3.4.7 5.1.7.5 0 1-.05 1.5-.1-.3-1-.5-2-.5-3.1 0-6.3 6.1-11.4 13.7-11.4.5 0 1 0 1.5.05C31.3 12.2 25 8.2 17.6 8.2Z"/>
  <path fill="#2DC100" d="M45 28.6c0-5.7-5.5-10.3-12.3-10.3-6.8 0-12.3 4.6-12.3 10.3s5.5 10.3 12.3 10.3c1.4 0 2.8-.2 4.1-.6l4.1 2-.1-3.6C43.3 34.6 45 31.8 45 28.6Z" opacity=".92"/>
  <circle cx="12.8" cy="19.4" r="1.7" fill="#fff"/>
  <circle cx="21.2" cy="19.4" r="1.7" fill="#fff"/>
  <circle cx="30.4" cy="28" r="1.5" fill="#fff"/>
  <circle cx="37.6" cy="28" r="1.5" fill="#fff"/>
</svg>
